<svg width="48" height="48" viewBox="0 0 48 48" fill="none" xmlns="http://www.w3.org/2000/svg">
<path d="M0 24C0 10.7452 10.7452 0 24 0C37.2548 0 48 10.7452 48 24C48 37.2548 37.2548 48 24 48C10.7452 48 0 37.2548 0 24Z" fill="#F2F9FF"/>
<path d="M16.7999 15.8999H31.1999C31.4386 15.8999 31.6675 15.9947 31.8363 16.1635C32.0051 16.3323 32.0999 16.5612 32.0999 16.7999V31.1999C32.0999 31.4386 32.0051 31.6675 31.8363 31.8363C31.6675 32.0051 31.4386 32.0999 31.1999 32.0999H16.7999C16.5612 32.0999 16.3323 32.0051 16.1635 31.8363C15.9947 31.6675 15.8999 31.4386 15.8999 31.1999V16.7999C15.8999 16.5612 15.9947 16.3323 16.1635 16.1635C16.3323 15.9947 16.5612 15.8999 16.7999 15.8999ZM17.6999 17.6999V30.2999H30.2999V17.6999H17.6999ZM23.1026 27.5999L19.2839 23.7812L20.5565 22.5086L23.1026 25.0547L28.193 19.9634L29.4665 21.236L23.1026 27.5999Z" fill="#1253A5"/>
</svg>
