<svg width="48" height="48" viewBox="0 0 48 48" fill="none" xmlns="http://www.w3.org/2000/svg">
<path d="M0 24C0 10.7452 10.7452 0 24 0C37.2548 0 48 10.7452 48 24C48 37.2548 37.2548 48 24 48C10.7452 48 0 37.2548 0 24Z" fill="#F2F9FF"/>
<path d="M31.1999 15C31.6967 15 32.0999 15.4032 32.0999 15.9V19.2813L30.2999 21.0813V16.8H17.6999V31.2H30.2999V28.7178L32.0999 26.9178V32.1C32.0999 32.5968 31.6967 33 31.1999 33H16.7999C16.3031 33 15.8999 32.5968 15.8999 32.1V15.9C15.8999 15.4032 16.3031 15 16.7999 15H31.1999ZM32.8001 21.1272L34.0727 22.3998L27.0725 29.4L25.7981 29.3982L25.7999 28.1274L32.8001 21.1272ZM24.8999 24V25.8H20.3999V24H24.8999ZM27.5999 20.4V22.2H20.3999V20.4H27.5999Z" fill="#1253A5"/>
</svg>
