<svg width="48" height="48" viewBox="0 0 48 48" fill="none" xmlns="http://www.w3.org/2000/svg">
<path d="M0 24C0 10.7452 10.7452 0 24 0C37.2548 0 48 10.7452 48 24C48 37.2548 37.2548 48 24 48C10.7452 48 0 37.2548 0 24Z" fill="#F2F9FF"/>
<path d="M19.5002 16.8V31.2H28.5002V16.8H19.5002ZM18.6002 15H29.4002C29.6389 15 29.8678 15.0948 30.0366 15.2636C30.2054 15.4324 30.3002 15.6613 30.3002 15.9V32.1C30.3002 32.3387 30.2054 32.5676 30.0366 32.7364C29.8678 32.9052 29.6389 33 29.4002 33H18.6002C18.3615 33 18.1326 32.9052 17.9638 32.7364C17.795 32.5676 17.7002 32.3387 17.7002 32.1V15.9C17.7002 15.6613 17.795 15.4324 17.9638 15.2636C18.1326 15.0948 18.3615 15 18.6002 15ZM24.0002 28.5C24.2389 28.5 24.4678 28.5948 24.6366 28.7636C24.8054 28.9324 24.9002 29.1613 24.9002 29.4C24.9002 29.6387 24.8054 29.8676 24.6366 30.0364C24.4678 30.2052 24.2389 30.3 24.0002 30.3C23.7615 30.3 23.5326 30.2052 23.3638 30.0364C23.195 29.8676 23.1002 29.6387 23.1002 29.4C23.1002 29.1613 23.195 28.9324 23.3638 28.7636C23.5326 28.5948 23.7615 28.5 24.0002 28.5Z" fill="#1253A5"/>
</svg>
