<svg width="48" height="48" viewBox="0 0 48 48" fill="none" xmlns="http://www.w3.org/2000/svg">
<path d="M0 24C0 10.7452 10.7452 0 24 0C37.2548 0 48 10.7452 48 24C48 37.2548 37.2548 48 24 48C10.7452 48 0 37.2548 0 24Z" fill="#F2F9FF"/>
<path d="M15.751 13.8243C15.5147 14.0757 15.375 14.466 15.375 14.9714V33.0284C15.375 33.5346 15.5147 33.9241 15.751 34.1756L15.8111 34.2344L25.8715 24.1191V23.9999V23.8807L15.8111 13.7646L15.751 13.8243Z" fill="url(#paint0_linear_15024_79746)"/>
<path d="M29.2245 27.4921L25.8716 24.1192V24V23.8808L29.2253 20.5088L29.3008 20.5521L33.2742 22.8218C34.4086 23.4701 34.4086 24.5307 33.2742 25.1798L29.3008 27.4496L29.2245 27.4921Z" fill="url(#paint1_linear_15024_79746)"/>
<g filter="url(#filter0_i_15024_79746)">
<path d="M29.3008 27.4483L25.8707 23.9995L15.751 34.1752C16.1245 34.5736 16.7425 34.6226 17.4384 34.2258L29.3008 27.4483Z" fill="url(#paint2_linear_15024_79746)"/>
</g>
<path d="M29.3008 20.5511L17.4384 13.7744C16.7425 13.3768 16.1245 13.4266 15.751 13.825L25.8715 24.0007L29.3008 20.5511Z" fill="url(#paint3_linear_15024_79746)"/>
<defs>
<filter id="filter0_i_15024_79746" x="15.751" y="23.9995" width="13.5498" height="10.5005" filterUnits="userSpaceOnUse" color-interpolation-filters="sRGB">
<feFlood flood-opacity="0" result="BackgroundImageFix"/>
<feBlend mode="normal" in="SourceGraphic" in2="BackgroundImageFix" result="shape"/>
<feColorMatrix in="SourceAlpha" type="matrix" values="0 0 0 0 0 0 0 0 0 0 0 0 0 0 0 0 0 0 127 0" result="hardAlpha"/>
<feOffset dy="-0.15"/>
<feComposite in2="hardAlpha" operator="arithmetic" k2="-1" k3="1"/>
<feColorMatrix type="matrix" values="0 0 0 0 0 0 0 0 0 0 0 0 0 0 0 0 0 0 0.08 0"/>
<feBlend mode="normal" in2="shape" result="effect1_innerShadow_15024_79746"/>
</filter>
<linearGradient id="paint0_linear_15024_79746" x1="24.9797" y1="14.7803" x2="11.2779" y2="28.4079" gradientUnits="userSpaceOnUse">
<stop stop-color="#00A0FF"/>
<stop offset="0.0066" stop-color="#00A1FF"/>
<stop offset="0.2601" stop-color="#00BEFF"/>
<stop offset="0.5122" stop-color="#00D2FF"/>
<stop offset="0.7604" stop-color="#00DFFF"/>
<stop offset="1" stop-color="#00E3FF"/>
</linearGradient>
<linearGradient id="paint1_linear_15024_79746" x1="34.7509" y1="24" x2="15.1027" y2="24" gradientUnits="userSpaceOnUse">
<stop stop-color="#FFE000"/>
<stop offset="0.4087" stop-color="#FFBD00"/>
<stop offset="0.7754" stop-color="#FFA500"/>
<stop offset="1" stop-color="#FF9C00"/>
</linearGradient>
<linearGradient id="paint2_linear_15024_79746" x1="27.438" y1="25.8724" x2="8.85666" y2="44.3531" gradientUnits="userSpaceOnUse">
<stop stop-color="#FF3A44"/>
<stop offset="1" stop-color="#C31162"/>
</linearGradient>
<linearGradient id="paint3_linear_15024_79746" x1="13.2023" y1="7.814" x2="21.4994" y2="16.0661" gradientUnits="userSpaceOnUse">
<stop stop-color="#32A071"/>
<stop offset="0.0685" stop-color="#2DA771"/>
<stop offset="0.4762" stop-color="#15CF74"/>
<stop offset="0.8009" stop-color="#06E775"/>
<stop offset="1" stop-color="#00F076"/>
</linearGradient>
</defs>
</svg>
