<svg width="48" height="48" viewBox="0 0 48 48" fill="none" xmlns="http://www.w3.org/2000/svg">
<path d="M0 24C0 10.7452 10.7452 0 24 0C37.2548 0 48 10.7452 48 24C48 37.2548 37.2548 48 24 48C10.7452 48 0 37.2548 0 24Z" fill="#F2F9FF"/>
<path d="M18.1167 17.1897C19.7498 15.7746 21.8391 14.997 24 15C28.9707 15 33 19.0293 33 24C33 25.9224 32.397 27.7044 31.371 29.166L28.5 24H31.2C31.2001 22.5885 30.7853 21.208 30.0072 20.0303C29.2291 18.8526 28.1219 17.9297 26.8235 17.3761C25.525 16.8226 24.0924 16.6629 22.704 16.917C21.3155 17.1711 20.0323 17.8277 19.014 18.8052L18.1167 17.1897ZM29.8833 30.8103C28.2502 32.2254 26.1609 33.003 24 33C19.0293 33 15 28.9707 15 24C15 22.0776 15.603 20.2956 16.629 18.834L19.5 24H16.8C16.7999 25.4115 17.2147 26.792 17.9928 27.9697C18.7709 29.1474 19.8781 30.0704 21.1765 30.6239C22.475 31.1774 23.9076 31.3371 25.296 31.083C26.6845 30.8289 27.9677 30.1723 28.986 29.1948L29.8833 30.8103Z" fill="#1253A5"/>
</svg>
