<svg width="32" height="32" viewBox="0 0 32 32" fill="none" xmlns="http://www.w3.org/2000/svg">
<path d="M16.6866 8.19538C18.5814 8.19538 20.1175 6.6593 20.1175 4.76444C20.1175 2.86958 18.5814 1.3335 16.6866 1.3335C14.7917 1.3335 13.2556 2.86958 13.2556 4.76444C13.2556 6.6593 14.7917 8.19538 16.6866 8.19538Z" fill="#009FAF"/>
<path opacity="0.6" d="M16.6868 30.6665C17.8236 30.6665 18.7451 29.7449 18.7451 28.6081C18.7451 27.4714 17.8236 26.5498 16.6868 26.5498C15.55 26.5498 14.6284 27.4714 14.6284 28.6081C14.6284 29.7449 15.55 30.6665 16.6868 30.6665Z" fill="#009FAF"/>
<path opacity="0.9" d="M8.25628 11.3436C9.96178 11.3436 11.3444 9.96105 11.3444 8.25555C11.3444 6.55006 9.96178 5.16748 8.25628 5.16748C6.55079 5.16748 5.16821 6.55006 5.16821 8.25555C5.16821 9.96105 6.55079 11.3436 8.25628 11.3436Z" fill="#009FAF"/>
<path opacity="0.5" d="M25.1171 26.8304C26.0645 26.8304 26.8326 26.0623 26.8326 25.1149C26.8326 24.1675 26.0645 23.3994 25.1171 23.3994C24.1697 23.3994 23.4016 24.1675 23.4016 25.1149C23.4016 26.0623 24.1697 26.8304 25.1171 26.8304Z" fill="#009FAF"/>
<path opacity="0.8" d="M4.76411 19.431C6.27962 19.431 7.50819 18.2025 7.50819 16.687C7.50819 15.1714 6.27962 13.9429 4.76411 13.9429C3.24859 13.9429 2.02002 15.1714 2.02002 16.687C2.02002 18.2025 3.24859 19.431 4.76411 19.431Z" fill="#009FAF"/>
<path opacity="0.4" d="M28.6081 18.0574C29.3655 18.0574 29.9795 17.4434 29.9795 16.6859C29.9795 15.9285 29.3655 15.3145 28.6081 15.3145C27.8506 15.3145 27.2366 15.9285 27.2366 16.6859C27.2366 17.4434 27.8506 18.0574 28.6081 18.0574Z" fill="#009FAF"/>
<path opacity="0.7" d="M6.55857 23.4194C5.62013 24.3579 5.62013 25.8763 6.55857 26.8148C7.4959 27.7532 9.01656 27.7532 9.95389 26.8148C10.8923 25.8763 10.8923 24.3579 9.95389 23.4194C9.01656 22.4799 7.49701 22.471 6.55857 23.4194Z" fill="#009FAF"/>
<path opacity="0.4" d="M25.116 9.28379C25.6841 9.28379 26.1446 8.82327 26.1446 8.25518C26.1446 7.68709 25.6841 7.22656 25.116 7.22656C24.5479 7.22656 24.0874 7.68709 24.0874 8.25518C24.0874 8.82327 24.5479 9.28379 25.116 9.28379Z" fill="#009FAF"/>
</svg>
