<svg width="20" height="20" viewBox="0 0 20 20" fill="none" xmlns="http://www.w3.org/2000/svg">
<path d="M4 5C2.61929 5 1.5 6.11929 1.5 7.5V13.5C1.5 14.8807 2.61929 16 4 16H14.5C16.1569 16 17.5 14.6569 17.5 13V7.5C17.5 5.84315 16.1569 4.5 14.5 4.5H4C4 4.5 4 5 4 5ZM4 6H14.5C15.3284 6 16 6.67157 16 7.5V9.25H11C9.75736 9.25 8.75 10.2574 8.75 11.5C8.75 12.7426 9.75736 13.75 11 13.75H16V13C16 13.8284 15.3284 14.5 14.5 14.5H4C3.17157 14.5 2.5 13.8284 2.5 13V7.5C2.5 6.67157 3.17157 6 4 6ZM11 10.75H16V12.25H11C10.5858 12.25 10.25 11.9142 10.25 11.5C10.25 11.0858 10.5858 10.75 11 10.75Z" fill="#009FAF"/>
<circle cx="6.5" cy="9.5" r="0.75" fill="#009FAF"/>
</svg>
