<svg width="32" height="32" viewBox="0 0 32 32" fill="none" xmlns="http://www.w3.org/2000/svg">
<path d="M10 8.8V5.2C10 4.88174 10.1264 4.57652 10.3515 4.35147C10.5765 4.12643 10.8818 4 11.2 4H25.6C25.9183 4 26.2235 4.12643 26.4485 4.35147C26.6736 4.57652 26.8 4.88174 26.8 5.2V22C26.8 22.3183 26.6736 22.6235 26.4485 22.8485C26.2235 23.0736 25.9183 23.2 25.6 23.2H22V26.8C22 27.4624 21.46 28 20.7916 28H6.40841C6.25016 28.0009 6.09329 27.9706 5.9468 27.9108C5.80031 27.8509 5.66709 27.7627 5.5548 27.6512C5.44251 27.5396 5.35336 27.407 5.29248 27.261C5.23159 27.1149 5.20017 26.9583 5.20001 26.8L5.20361 10C5.20361 9.3376 5.74361 8.8 6.41201 8.8H10ZM7.60361 11.2L7.60001 25.6H19.6V11.2H7.60361ZM12.4 8.8H22V20.8H24.4V6.4H12.4V8.8Z" fill="#009FAF"/>
</svg>
