<svg width="32" height="24" viewBox="0 0 32 24" fill="none" xmlns="http://www.w3.org/2000/svg">
<path d="M0.00732422 2V5.87901V9.73318V13.5862H3.88708V9.73318V5.87901V2H0.00732422Z" fill="url(#paint0_linear_15024_79665)"/>
<path d="M29.7123 8.0859C28.1967 6.57509 26.2115 5.81894 24.2246 5.81894C22.2383 5.81894 20.2525 6.57509 18.7361 8.0859L15.9922 10.8231L13.2487 8.0859C10.2178 5.06316 5.30419 5.06316 2.27366 8.0859C-0.757236 11.1105 -0.757236 16.0108 2.27366 19.0339C5.30381 22.0567 10.2178 22.0567 13.2487 19.0339L15.3162 16.972L13.2487 13.5599L15.9922 16.2975L18.7361 19.0339C21.7689 22.0567 26.6818 22.0567 29.7127 19.0339C32.7436 16.0112 32.7436 11.1105 29.7123 8.0859ZM10.5049 16.2975C9.7721 17.0288 8.79752 17.4315 7.76065 17.4315C6.7234 17.4315 5.7492 17.0288 5.01641 16.2975C4.28363 15.5658 3.88052 14.5934 3.88052 13.5599C3.88052 12.5256 4.28326 11.5548 5.01641 10.8231C5.7492 10.0925 6.7234 9.6898 7.76065 9.6898C8.79715 9.6898 9.7721 10.0925 10.5049 10.8231L13.2487 13.5599L10.5049 16.2975ZM26.9681 16.2975C26.2357 17.0288 25.2607 17.4315 24.2242 17.4315C23.1877 17.4315 22.2128 17.0288 21.48 16.2975L18.7357 13.5599L21.48 10.8231C22.2128 10.0925 23.1877 9.6898 24.2242 9.6898C25.2603 9.6898 26.2357 10.0925 26.9681 10.8231C27.7012 11.5548 28.1058 12.5256 28.1058 13.5599C28.1058 14.5934 27.7012 15.5658 26.9681 16.2975Z" fill="url(#paint1_linear_15024_79665)"/>
<path d="M15.9771 10.808L18.8874 7.87983C18.8874 7.87983 20.9248 5.81127 24.2242 5.81201C25.8722 5.81238 27.9901 6.36902 29.7123 8.08936C29.7123 8.08936 32.5808 10.6686 31.8936 14.766C31.8936 14.766 31.5495 17.9827 28.6354 19.9585C27.9271 20.4388 24.8469 22.2707 21.0988 20.6476C21.0988 20.6476 28.5612 18.4737 28.0728 13.2022C27.8614 10.923 25.85 9.74368 24.3459 9.69844C24.3459 9.69844 22.7227 9.58014 21.4804 10.8306L18.7424 13.566L15.9771 10.808Z" fill="url(#paint2_linear_15024_79665)"/>
<path d="M15.3233 16.984L13.8592 18.4418C13.8592 18.4418 11.942 20.8045 8.9693 21.2417C5.99663 21.6793 3.87096 20.3057 3.87096 20.3057C3.87096 20.3057 1.13673 18.9718 0.217416 15.4773C0.217416 15.4773 -0.00546022 14.7141 0.00010242 13.5793C0.00010242 13.5793 3.09627 17.432 7.73996 17.432C7.73996 17.432 9.22963 17.531 10.4886 16.328L13.2485 13.5601L15.3233 16.984Z" fill="url(#paint3_linear_15024_79665)"/>
<path d="M13.2485 13.5601L15.3234 16.9844L15.992 16.298L13.2485 13.5601Z" fill="#1253A5"/>
<defs>
<linearGradient id="paint0_linear_15024_79665" x1="1.94723" y1="21.5618" x2="1.94723" y2="2.81157" gradientUnits="userSpaceOnUse">
<stop offset="0.4158" stop-color="#6FC05E"/>
<stop offset="0.5325" stop-color="#74C15C"/>
<stop offset="0.6661" stop-color="#82C556"/>
<stop offset="0.8078" stop-color="#98CC4D"/>
<stop offset="0.9545" stop-color="#B8D540"/>
<stop offset="0.9656" stop-color="#BBD63F"/>
</linearGradient>
<linearGradient id="paint1_linear_15024_79665" x1="32.8692" y1="21.295" x2="0.4556" y2="6.43876" gradientUnits="userSpaceOnUse">
<stop offset="0.0877" stop-color="#1253A5"/>
<stop offset="0.3069" stop-color="#348BB8"/>
<stop offset="0.4792" stop-color="#4BB1C4"/>
<stop offset="0.5699" stop-color="#54BFC9"/>
<stop offset="1" stop-color="#BBD63F"/>
</linearGradient>
<linearGradient id="paint2_linear_15024_79665" x1="6.26175" y1="1.75775" x2="29.5581" y2="16.9829" gradientUnits="userSpaceOnUse">
<stop offset="0.348" stop-color="#1253A5"/>
<stop offset="0.3634" stop-color="#1156A5"/>
<stop offset="0.624" stop-color="#058BAC"/>
<stop offset="0.7514" stop-color="#009FAF"/>
<stop offset="1" stop-color="#54BFC9"/>
</linearGradient>
<linearGradient id="paint3_linear_15024_79665" x1="20.0702" y1="12.466" x2="4.1714" y2="17.5581" gradientUnits="userSpaceOnUse">
<stop stop-color="#009FAF"/>
<stop offset="0.1604" stop-color="#1CAAB8"/>
<stop offset="0.348" stop-color="#34B3BF"/>
<stop offset="0.5447" stop-color="#46BAC5"/>
<stop offset="0.754" stop-color="#51BEC8"/>
<stop offset="0.9976" stop-color="#54BFC9"/>
</linearGradient>
</defs>
</svg>
