<svg width="32" height="32" viewBox="0 0 32 32" fill="none" xmlns="http://www.w3.org/2000/svg">
<path d="M8.5 8C6.567 8 5 9.567 5 11.5V21.5C5 23.433 6.567 25 8.5 25H23C25.4853 25 27.5 22.9853 27.5 20.5V12.5C27.5 10.0147 25.4853 8 23 8H8.5ZM8.5 10H23C24.3807 10 25.5 11.1193 25.5 12.5V14.75H18C16.067 14.75 14.5 16.317 14.5 18.25C14.5 20.183 16.067 21.75 18 21.75H25.5V20.5C25.5 21.8807 24.3807 23 23 23H8.5C7.67157 23 7 22.3284 7 21.5V11.5C7 10.6716 7.67157 10 8.5 10ZM18 17.25H25.5V19.25H18C17.3096 19.25 16.75 18.6904 16.75 18C16.75 17.3096 17.3096 16.75 18 16.75Z" fill="#171717"/>
<circle cx="11" cy="15.5" r="1.25" fill="#171717"/>
</svg>
