<svg width="530" height="362" viewBox="0 0 530 362" fill="none" xmlns="http://www.w3.org/2000/svg">
<path d="M502.628 0L496.422 4.13685L480.392 18.6158L463.327 36.7146L451.434 53.262L441.092 72.912L437.472 83.7713L432.818 106.007L430.233 130.311L428.681 159.269L425.579 180.47L417.822 209.428L406.446 234.249L399.206 245.626L392.484 253.899L378.005 268.895L358.872 285.443L340.256 299.922L329.397 310.781L321.123 322.674L317.503 330.431L315.435 338.705V350.598L317.503 360.423L323.709 374.385L331.982 386.279L353.701 408.514L369.214 421.442L415.237 454.537L449.366 483.495L468.499 502.628L489.183 528.483M468.499 0L451.434 17.5816L439.541 34.129L429.198 53.262L422.476 70.8436L419.891 82.737L417.822 102.387L417.305 144.79L415.754 165.991L410.065 194.949L403.343 213.565L393.001 233.215L386.279 242.523L375.419 254.934L353.184 275.101L325.26 297.336L314.401 308.713L308.713 316.986L305.093 324.226L301.473 336.636V350.081L306.127 365.077L312.849 377.488L325.26 394.552L339.222 409.031L353.184 421.442L408.514 463.845L429.198 482.977L448.331 503.145L466.43 528.483M436.438 0L421.959 20.6843L415.237 33.6119L409.548 48.608L405.929 63.087L404.377 71.8778L403.343 88.9423L404.894 144.273L404.377 156.683L401.275 179.436L394.035 204.257L382.142 228.044L369.731 243.557L353.184 259.587L330.431 277.686L308.713 296.819L299.405 308.195L293.717 317.503L290.097 326.294L288.545 335.085V348.013L292.165 361.975L297.336 372.834L313.367 395.587L351.115 431.267L398.689 470.567L415.237 487.114L427.13 500.559L440.575 518.658L446.263 528.483M407.997 0L401.275 11.8935L396.104 24.304L390.933 41.8856L388.347 57.9159V86.3568L391.967 127.725V157.2L389.381 178.402L383.693 199.603L373.868 218.736L360.423 236.318L344.393 252.348L307.161 282.34L295.268 294.234L287.511 304.059L283.892 309.747L278.203 322.674L276.135 333.534V345.944L281.306 364.043L288.545 377.488L298.888 391.45L326.294 420.925L375.419 463.845L393.001 480.909L412.134 503.662L427.647 528.483M342.325 0L339.739 18.6158L340.256 49.1251L345.944 83.7713L353.184 116.349L355.769 137.033V156.683L351.115 180.987L345.427 195.466L337.671 207.877L329.397 218.219L310.781 237.352L285.96 259.07L269.93 274.584L254.416 293.717L248.211 305.093L243.04 319.572L242.006 325.26V340.256L243.04 345.944L249.762 364.56L253.899 372.834L260.105 382.142L284.926 411.617L332.5 459.191L351.632 480.909L367.146 502.628L376.454 520.209L379.556 528.483M280.789 0L281.823 1.03421L285.443 22.7527L292.682 50.1593L301.99 77.0489L312.849 113.763L315.952 132.379V154.615L314.918 160.82L310.264 177.368L302.507 192.364L294.751 204.257L270.964 231.147L238.903 263.724L231.664 272.515L223.39 284.926L216.668 298.37L212.014 312.849L210.979 321.123L211.497 339.739L216.151 356.286L221.839 367.663L232.181 384.727L252.865 410.065L295.268 454.537L309.23 471.601L319.572 486.08L331.982 507.281L337.153 520.209L338.705 528.483M128.76 0L145.307 8.79081L156.166 11.3763L173.231 11.8935L194.949 9.30792H206.326L219.253 11.8935L229.078 16.5474L238.903 24.8211L252.348 42.9198L262.69 61.0186L277.686 93.5963L284.926 116.866L287.511 133.413L286.994 153.064L282.857 171.162L274.584 187.193L261.656 206.326L246.66 224.941L220.287 254.934L204.257 277.169L197.535 291.131L192.881 306.127L191.329 316.469V329.914L194.432 348.013L200.637 363.526L205.291 372.317L215.116 387.313L226.493 402.309L253.899 433.335L270.964 450.917L288.028 473.152L300.956 492.803L305.61 501.593L311.815 518.141L313.884 528.483M95.6647 0L111.178 18.0987L123.588 27.4066L132.896 32.0606L142.204 35.1632L153.581 37.2317L190.812 36.7146L199.603 37.7488L210.979 40.8514L219.253 44.9883L232.181 54.2962L244.074 66.7067L255.451 82.737L264.759 100.836L270.447 117.9L272.515 132.379L271.998 149.961L266.31 172.196L260.622 184.09L249.245 202.189L225.458 232.698L208.911 251.831L198.052 267.344L192.881 276.652L188.227 286.477L183.056 302.507L181.504 314.401V328.363L184.607 347.496L193.398 368.697L204.774 386.279L216.668 402.309L231.664 420.408L248.728 437.989L262.173 453.502L282.857 481.426L295.268 505.73L299.405 519.175L300.956 528.483M70.8436 0L82.2199 18.0987L88.9423 26.3724L101.353 38.783L111.178 46.0225L126.691 53.7791L138.067 56.8817L150.478 58.9501L171.162 59.4673L190.295 61.5357L199.086 63.6041L210.979 68.2581L224.941 77.0489L234.249 85.8397L244.591 99.2845L251.314 112.729L254.934 123.588L256.485 138.585L255.968 153.581L251.831 168.577L245.626 181.504L234.249 201.154L224.424 215.116L199.086 247.177L182.539 273.549L177.885 283.374L173.231 297.336L171.162 308.713V327.846L175.299 348.53L180.47 363.009L185.124 371.8L204.257 400.24L224.941 424.027L240.455 440.058L265.793 472.118L275.618 488.149L282.34 502.11L287.511 518.658L288.545 528.483M28.958 0L37.2317 10.8592L51.1935 32.5777L67.741 54.8133L80.6686 68.2581L90.4937 76.0147L98.2503 81.1857L118.417 90.4936L139.102 95.6647L171.162 101.87L190.295 108.592L200.637 114.798L209.945 123.588L217.702 136.516L220.287 147.375V155.649L215.116 175.816L204.774 195.983L193.915 213.565L175.299 240.455L160.82 267.344L152.029 294.234L149.961 311.298L150.478 324.743L156.166 349.564L165.991 372.834L176.333 388.864L190.812 408.514L224.941 448.848L244.074 474.187L253.899 492.285L259.07 504.696L262.69 518.141L263.724 528.483M8.27371 0L25.8553 23.2698L39.8172 44.9883L50.6764 59.4673L58.9502 69.2923L70.3265 80.6686L79.1173 87.9081L91.0108 95.6647L106.524 103.421L125.14 110.144L161.337 120.486L176.333 127.208L183.056 131.862L190.812 139.619L195.983 147.892L198.052 155.132V168.577L194.432 180.987L182.022 205.808L160.303 242.006L149.961 263.724L145.824 275.101L143.239 284.409L140.653 300.956L140.136 316.986L141.17 326.294L144.79 343.876L149.444 358.355L161.337 381.625L179.953 407.997L218.736 454.537L238.903 486.08L243.557 495.905L248.211 509.867L250.797 528.483M383.693 0.517107L375.936 23.7869L372.317 50.6764L372.834 75.4976L377.488 108.592L380.073 137.033L379.556 162.371L375.419 186.158L370.765 198.569L364.56 210.979L354.218 225.458L344.91 235.801L324.743 254.934L299.405 275.618L283.892 291.131L275.618 301.473L271.998 307.161L266.31 320.089L264.241 331.465V341.807L265.793 352.15L269.413 362.492L278.203 378.522L286.477 389.898L299.405 405.412L321.123 427.13L346.978 449.883L376.454 479.358L397.138 505.73L410.065 528.483M363.526 0.517107L359.389 13.4448L356.286 34.6461V51.7107L357.838 68.2581L365.594 113.763L368.18 137.033L367.663 162.371L363.526 183.056L358.872 195.983L355.252 202.706L346.461 216.151L337.153 228.044L313.367 250.797L288.545 270.964L275.101 284.409L268.378 292.682L261.139 304.059L256.485 313.884L253.899 322.157L252.865 338.705L254.934 351.115L257.519 359.906L263.724 372.317L271.998 384.21L292.682 409.031L334.051 449.366L365.077 481.426L373.351 491.768L382.659 505.73L394.552 528.483M322.157 0.517107L321.123 19.65L324.226 51.1935L338.705 109.627L342.842 135.482V155.649L339.222 175.299L336.119 185.124L330.948 195.466L315.952 215.633L297.853 235.283L278.72 252.348L260.622 270.447L244.074 290.614L238.386 300.439L235.283 308.713L231.664 321.64L231.147 334.051L232.698 345.427L235.801 355.252L244.591 373.868L248.211 379.556L270.447 406.963L325.777 464.362L338.705 480.392L356.286 506.764L365.594 528.483M301.99 0.517107L304.576 29.4751L308.196 50.1593L318.538 88.9423L322.157 99.2845L328.363 124.623L329.914 138.585V150.995L327.328 168.577L324.226 178.919L317.503 192.881L305.61 209.945L295.268 222.356L250.797 265.793L234.249 285.96L228.561 296.302L224.424 308.195L221.322 321.64L220.805 335.085L222.356 345.427L226.493 357.838L231.147 367.663L240.972 383.693L263.724 410.583L301.473 449.883L324.743 476.772L341.807 502.628L347.496 514.521L352.15 528.483M255.451 0.517107L258.036 4.65396L268.895 30.5093L273.032 42.9198L284.409 69.8094L296.819 106.524L301.99 132.379L301.473 155.649L299.405 167.025L296.302 176.333L284.409 197.018L268.895 216.668L227.527 262.173L210.979 286.477L205.291 299.405L202.189 311.815L201.154 319.572L201.672 337.153L203.223 345.944L207.36 357.838L220.805 381.625L230.112 395.069L239.937 406.963L281.823 450.917L300.956 475.221L317.503 502.628L323.192 516.589L326.294 528.483M50.1594 0.517107L69.8094 29.9922L80.6686 43.9541L92.045 55.3304L103.938 64.1212L117.9 71.3607L132.896 76.0147L180.987 83.2542L203.223 90.4936L212.014 95.6647L223.39 105.49L229.595 113.246L235.801 125.14L238.903 137.033V153.064L234.766 169.094L228.044 184.09L220.287 198.052L211.497 211.497L185.641 246.143L172.196 269.93L166.508 283.374L162.889 296.302L160.82 309.23L160.303 323.709L164.957 347.496L174.782 370.765L198.052 404.377L242.006 455.571L257.519 477.289L269.413 500.042L274.066 515.038L276.135 528.483M529 7.23949L501.593 27.9238L483.495 44.9883L472.635 58.433L458.156 82.737L451.951 97.7331L447.814 113.763L442.126 149.444L440.058 168.577L433.852 199.086L427.647 218.736L417.305 240.455L409.031 253.382L399.723 265.276L380.59 283.891L353.184 306.127L343.359 315.952L335.602 326.294L333.017 331.465L330.431 341.29V353.184L334.051 365.594L341.29 379.039L350.081 389.898L372.317 410.583L392.484 425.062L427.647 447.814L455.571 469.016L488.149 500.042L499.525 513.487L514.521 528.483M-7.48912e-06 16.5474L18.6159 44.9883L33.6119 64.6383L42.9199 75.4976L64.6383 96.1818L79.1173 106.524L95.6647 116.349L150.478 139.102L161.854 146.858L168.06 153.064L172.714 160.82L174.782 169.611V175.816L170.645 192.364L164.44 206.843L143.756 246.143L137.55 262.69L134.448 274.066L130.311 300.956V318.538L131.862 329.914L134.965 343.876L141.687 362.492L155.132 387.313L172.714 412.651L195.983 440.058L209.428 457.639L225.458 482.977L234.249 503.145L237.352 515.038L238.386 528.483M529 36.7146L512.453 49.1251L493.837 67.2238L479.875 85.3226L470.567 102.904L460.742 130.311L456.088 149.961L450.4 182.539L444.195 208.394L437.989 227.527L430.233 243.557L418.339 262.173L407.997 275.101L385.244 296.819L367.663 311.298L356.804 322.674L350.598 332.499L346.978 344.393V353.701L350.598 365.077L360.423 381.625L374.385 396.104L393.518 411.617L448.848 446.263L477.289 466.947L502.11 488.149L528.483 513.487M-7.48912e-06 48.608L5.17107 56.3646L20.6843 75.4976L48.0909 102.387L64.6383 115.315L80.6686 126.174L102.387 139.102L129.794 153.581L140.653 162.371L144.273 166.508L148.41 173.748L149.961 179.436V189.261L148.927 194.432L146.341 203.74L129.277 247.177L125.657 260.105L121.003 283.374L119.969 294.234V314.918L123.071 335.602L131.345 360.423L143.239 383.176L161.854 411.1L199.086 458.673L210.979 478.324L218.219 493.32L221.839 503.145L224.424 514.521L224.941 528.483M529 63.6041L502.628 89.9765L493.32 102.904L481.943 123.588L471.601 152.029L461.259 196.5L454.537 218.736L447.297 238.903L439.023 255.451L429.716 269.413L422.476 278.203L379.556 320.606L374.385 326.811L368.18 337.153L365.594 346.978L366.629 360.423L370.248 368.697L380.59 382.659L394.035 396.104L409.548 406.963L453.502 431.784L480.392 449.366L509.867 471.084L529 486.597M-7.48912e-06 79.6344L23.2698 102.387L40.8514 117.383L56.3646 129.277L98.2503 157.2L109.109 165.474L118.417 175.299L123.071 183.056L125.657 191.847L125.14 207.877L114.281 251.314L111.178 267.861L109.109 286.477L109.627 313.367L114.798 340.773L122.554 363.009L133.413 384.21L159.269 422.476L184.607 455.054L198.569 477.806L204.774 490.734L209.945 505.213L212.014 517.624L212.531 528.483M529 91.5279L508.833 116.349L497.457 134.965L491.768 146.858L483.495 169.611L467.464 224.424L461.259 240.972L454.537 255.451L448.331 266.31L436.955 282.34L426.096 294.751L408.514 312.332L396.104 326.811L388.864 338.705L386.279 349.047L387.313 359.906L391.45 369.214L397.138 376.971L410.583 389.898L432.301 403.86L477.289 427.647L529 460.742M0.5171 110.661L35.1633 134.965L78.6002 167.543L92.045 181.504L98.7674 192.881L102.904 205.808L103.421 223.39L98.2503 265.793L97.7332 292.165L100.319 319.572L106.524 345.427L110.144 355.769L116.866 370.248L130.828 396.104L143.756 415.754L168.577 448.331L178.402 463.327L188.227 480.909L193.915 493.837L197.018 504.696L198.569 513.487L199.086 527.966M529 122.554L516.589 140.136L506.247 158.752L493.837 189.778L477.289 239.937L463.327 270.447L451.434 288.028L416.788 328.88L411.617 337.671L409.548 344.91V350.081L411.617 359.389L420.408 373.868L427.647 381.108L442.126 390.933L489.183 415.237L528.483 437.989M-7.48912e-06 140.136L0.5171 141.17L32.5777 159.269L53.7791 173.748L68.2581 187.71L77.0489 201.154L81.1857 213.048L83.2542 224.941L84.8055 273.032L86.8739 300.956L91.0108 324.226L96.1818 343.359L106.007 368.697L118.417 392.484L129.277 409.548L163.406 458.156L175.816 480.392L182.022 496.939L184.607 506.764L185.641 514.004V528.483M529 156.683L517.107 178.919L507.799 199.603L488.149 253.899L482.978 265.793L476.255 279.238L466.43 294.751L440.058 331.465L436.955 337.671L435.404 343.876L435.921 351.115L439.541 360.94L442.643 365.594L449.883 372.317L470.05 384.727L529 413.168M-7.48912e-06 169.611L25.3382 182.022L37.2317 190.295L50.1594 203.223L59.4673 218.736L63.087 228.561L67.741 248.728L72.9121 287.511L77.0489 310.264L87.9081 348.53L97.2161 371.282L109.627 394.552L122.037 414.719L150.478 456.088L159.269 472.118L168.06 492.285L171.162 502.628L172.714 514.004V528.483M529 195.983L510.901 238.386L495.905 278.203L487.114 295.785L474.704 315.952L467.464 330.948L465.913 336.636V343.876L467.464 350.598L471.601 356.804L477.289 362.492L488.149 369.731L529 388.347M-7.48912e-06 200.12L12.9277 205.291L25.3382 212.531L36.7146 223.907L42.4028 233.215L51.7106 255.451L70.3265 327.846L82.737 361.975L92.5621 382.142L106.524 406.446L137.033 453.502L152.029 483.495L156.683 497.974L158.235 506.247L158.752 528.483M-7.48912e-06 228.044L14.9961 236.318L25.8553 247.694L33.0948 259.587L45.5054 289.063L63.6041 340.773L76.0147 369.214L89.9766 396.104L126.691 457.122L137.55 480.392L143.756 500.559L144.79 508.833V521.761L143.756 528.483M529 245.108L509.867 297.853L505.213 308.195L501.593 321.123L500.559 329.397L501.593 337.153L506.247 346.461L515.038 354.218L523.829 358.872L529 360.423M-7.48912e-06 258.036L8.27371 263.724L17.0645 272.515L27.9237 288.545L39.8172 312.332L54.8133 349.047L73.4292 386.279L85.8397 409.031L101.353 434.369L119.452 468.499L127.208 488.666L129.794 500.042L130.828 515.038L129.277 528.483M0.5171 289.063L15.5132 303.542L28.4409 322.674L44.4712 352.667L52.7449 370.248L101.87 459.191L109.627 477.289L115.315 497.974L115.832 518.141L113.763 528.483M-7.48912e-06 320.089L13.4448 332.499L28.958 353.701L53.7791 395.587L88.4252 459.191L94.1134 472.635L99.8016 493.32L100.319 513.487L97.2161 528.483M-7.48912e-06 349.564L5.17107 353.184L16.0303 364.56L30.5093 383.693L56.8817 426.096L75.4976 461.776L80.1515 474.704L84.2884 493.837L83.7713 513.487L81.7028 522.278L79.6344 528.483L78.6002 529M-7.48912e-06 378.005L5.68817 382.659L21.2014 398.689L34.6461 416.788L51.1935 444.195L62.5699 469.016L67.2239 488.149V504.179L62.5699 520.726L58.433 528.483M-7.48912e-06 407.48L14.9961 420.925L29.4751 439.023L39.8172 456.605L47.0567 474.187L49.1252 486.08V493.837L47.5738 504.179L41.8857 516.589L37.2317 523.312L32.5777 528.483H31.5435M-7.48912e-06 439.541L11.3764 449.883L17.0645 457.639L22.7527 468.499L26.3724 479.358L25.8553 492.285L20.6843 504.696L11.8935 515.038L3.10264 521.761L-7.48912e-06 522.795" stroke="url(#paint0_radial_15024_79458)" stroke-opacity="0.5" stroke-linecap="round" stroke-linejoin="round"/>
<defs>
<radialGradient id="paint0_radial_15024_79458" cx="0" cy="0" r="1" gradientUnits="userSpaceOnUse" gradientTransform="translate(-0.651718 6.24027e-05) rotate(28.3467) scale(601.815 398.225)">
<stop stop-color="#36D4FC"/>
<stop offset="0.885393" stop-color="white" stop-opacity="0"/>
</radialGradient>
</defs>
</svg>
